<?xml version="1.0" encoding="UTF-8" standalone="no"?>
<!-- Created with Inkscape (http://www.inkscape.org/) -->

<svg
   version="1.1"
   id="svg1079"
   width="880"
   height="880"
   viewBox="0 0 880 880"
   sodipodi:docname="sunset-pyramids [Converted].svg"
   inkscape:version="1.2 (dc2aedaf03, 2022-05-15)"
   xmlns:inkscape="http://www.inkscape.org/namespaces/inkscape"
   xmlns:sodipodi="http://sodipodi.sourceforge.net/DTD/sodipodi-0.dtd"
   xmlns="http://www.w3.org/2000/svg"
   xmlns:svg="http://www.w3.org/2000/svg">
  <defs
     id="defs1083">
    <clipPath
       clipPathUnits="userSpaceOnUse"
       id="clipPath1099">
      <path
         d="M 0,660 H 660 V 0 H 0 Z"
         id="path1097" />
    </clipPath>
  </defs>
  <sodipodi:namedview
     id="namedview1081"
     pagecolor="#ffffff"
     bordercolor="#000000"
     borderopacity="0.25"
     inkscape:showpageshadow="2"
     inkscape:pageopacity="0.0"
     inkscape:pagecheckerboard="0"
     inkscape:deskcolor="#d1d1d1"
     showgrid="false"
     inkscape:zoom="0.95113636"
     inkscape:cx="440.52569"
     inkscape:cy="440.52569"
     inkscape:window-width="1920"
     inkscape:window-height="1017"
     inkscape:window-x="-8"
     inkscape:window-y="-8"
     inkscape:window-maximized="1"
     inkscape:current-layer="g1087">
    <inkscape:page
       x="0"
       y="0"
       id="page1085"
       width="880"
       height="880" />
  </sodipodi:namedview>
  <g
     id="g1087"
     inkscape:groupmode="layer"
     inkscape:label="Page 1"
     transform="matrix(1.3333333,0,0,-1.3333333,0,880)">
    <g
       id="g1089"
       transform="translate(80.4585,606.4971)">
      <path
         d="M 0,0 H 499.455 V -54.424 -499.455 H 0 v 445.031 z"
         style="fill:#fbca07;fill-opacity:1;fill-rule:evenodd;stroke:none"
         id="path1091" />
    </g>
    <g
       id="g1093">
      <g
         id="g1095"
         clip-path="url(#clipPath1099)">
        <g
           id="g1101"
           transform="translate(579.9131,477.8281)">
          <path
             d="m 0,0 v -152.374 c -49.706,-45.88 -142.925,-76.771 -249.728,-76.771 -106.801,0 -200.02,30.891 -249.727,76.771 V 0.001 c 49.707,45.88 142.926,76.771 249.727,76.771 C -142.925,76.772 -49.706,45.88 0,0"
             style="fill:#fae433;fill-opacity:1;fill-rule:evenodd;stroke:none"
             id="path1103" />
        </g>
        <g
           id="g1105"
           transform="translate(245.7588,565.0093)">
          <path
             d="m 0,0 c 65.075,0 117.829,-52.755 117.829,-117.83 0,-65.076 -52.754,-117.829 -117.829,-117.829 -65.076,0 -117.83,52.753 -117.83,117.829 C -117.83,-52.755 -65.076,0 0,0"
             style="fill:#fcf899;fill-opacity:1;fill-rule:evenodd;stroke:none"
             id="path1107" />
        </g>
        <path
           d="M 80.458,342.722 H 579.913 V 107.042 H 80.458 Z"
           style="fill:#463d3b;fill-opacity:1;fill-rule:evenodd;stroke:none"
           id="path1109" />
        <g
           id="g1111"
           transform="translate(286.6567,353.0371)">
          <path
             d="m 0,0 -45.325,42.887 -136.093,-157.549 180.475,50.31 v 0.584 z"
             style="fill:#463d3b;fill-opacity:1;fill-rule:evenodd;stroke:none"
             id="path1113" />
        </g>
        <g
           id="g1115"
           transform="translate(103.9629,441.4072)">
          <path
             d="M 0,0 -0.468,3.939 -1.042,-0.675 C -0.694,-0.444 -0.347,-0.221 0,0 M 54.942,5.582 54.931,6.007 54.859,5.564 Z m -7.476,-121.821 c -1.746,-3.708 -15.843,-3.025 -14.582,1.016 9.508,30.461 2.864,74.902 -2.732,106.491 l -11.018,-3.911 -0.581,4.316 -0.726,-4.779 -9.757,-3.464 -1.452,5.737 -0.563,-6.452 -12.232,-4.341 -0.812,5.303 -0.812,-5.88 -15.703,-5.575 v 6.072 c 6.916,8.387 14.316,15.431 21.447,20.344 l -17.582,3.214 c 13.521,14.441 30.738,19.945 42.11,10.397 1.857,1.605 4.247,2.57 6.855,2.57 5.916,0 10.712,-4.967 10.712,-11.095 0,-0.065 -10e-4,-0.13 -0.002,-0.194 11.091,11.262 24.877,16.125 29.072,1.924 6.659,-1.999 11.73,-7.266 13.061,-17.003 l -8.219,0.698 -0.733,4.374 -1.124,-4.217 -9.558,0.811 -0.291,8.55 -0.06,-0.011 -1.885,-8.348 -17.767,1.508 0.072,2.602 -0.68,-2.55 -5.448,0.462 0.04,-0.12 c 4.66,-13.989 19.442,-90.423 10.95,-108.449"
             style="fill:#463d3b;fill-opacity:1;fill-rule:evenodd;stroke:none"
             id="path1117" />
        </g>
        <g
           id="g1119"
           transform="translate(171.2373,471.6323)">
          <path
             d="m 0,0 -0.538,4.529 -0.66,-5.305 C -0.798,-0.51 -0.398,-0.253 0,0 M 63.184,6.419 63.171,6.91 63.088,6.399 Z m -8.598,-140.095 c -2.008,-4.264 -18.22,-3.478 -16.769,1.169 10.933,35.03 3.294,86.137 -3.142,122.466 l -12.671,-4.498 -0.668,4.964 -0.835,-5.497 -11.22,-3.984 -1.671,6.598 -0.647,-7.42 -14.066,-4.993 -0.934,6.099 -0.935,-6.762 -25.418,-9.023 c 9.894,13.867 21.228,25.552 32.025,32.991 l -20.22,3.696 c 15.549,16.608 35.348,22.936 48.426,11.957 2.137,1.845 4.884,2.955 7.883,2.955 6.805,0 12.32,-5.713 12.32,-12.76 0,-0.075 0,-0.149 -0.002,-0.222 12.755,12.951 28.609,18.544 33.433,2.212 7.657,-2.298 13.49,-8.355 15.021,-19.554 l -9.452,0.803 -0.843,5.031 -1.293,-4.85 -10.993,0.933 -0.333,9.833 -0.071,-0.013 -2.165,-9.602 -20.433,1.736 0.082,2.992 -0.781,-2.933 -6.266,0.532 0.046,-0.138 c 5.358,-16.088 22.358,-103.989 12.592,-124.718"
             style="fill:#463d3b;fill-opacity:1;fill-rule:evenodd;stroke:none"
             id="path1121" />
        </g>
        <g
           id="g1123"
           transform="translate(228.4585,436.1978)">
          <path
             d="m 0,0 -0.538,4.529 -0.66,-5.305 C -0.797,-0.511 -0.398,-0.254 0,0 m 63.184,6.419 -0.013,0.49 -0.083,-0.511 z m -8.597,-140.095 c -2.008,-4.265 -18.22,-3.478 -16.771,1.168 10.935,35.031 3.296,86.138 -3.141,122.466 l -12.67,-4.498 -0.668,4.964 -0.835,-5.497 -11.221,-3.983 -1.67,6.598 -0.648,-7.421 -14.066,-4.993 -0.934,6.1 -0.934,-6.764 -25.42,-9.021 c 9.895,13.866 21.229,25.551 32.026,32.99 l -20.219,3.696 c 15.548,16.609 35.348,22.937 48.425,11.958 2.137,1.845 4.885,2.955 7.884,2.955 6.804,0 12.319,-5.713 12.319,-12.76 0,-0.074 0,-0.149 -10e-4,-0.223 12.755,12.951 28.608,18.545 33.432,2.213 7.658,-2.299 13.49,-8.357 15.021,-19.554 l -9.452,0.803 -0.843,5.03 -1.293,-4.849 -10.993,0.933 -0.333,9.833 -0.07,-0.014 -2.167,-9.601 -20.432,1.735 0.082,2.993 -0.781,-2.934 -6.266,0.532 0.046,-0.137 c 5.36,-16.089 22.358,-103.99 12.593,-124.718"
             style="fill:#463d3b;fill-opacity:1;fill-rule:evenodd;stroke:none"
             id="path1125" />
        </g>
        <g
           id="g1127"
           transform="translate(274.5049,447.752)">
          <path
             d="M 0,0 -0.467,3.931 -1.04,-0.673 C -0.692,-0.443 -0.347,-0.219 0,0 M 54.813,5.57 54.802,5.994 54.729,5.551 Z m -7.458,-121.537 c -1.743,-3.697 -15.807,-3.017 -14.548,1.014 9.485,30.39 2.858,74.726 -2.726,106.241 l -10.991,-3.901 -0.58,4.306 -0.724,-4.769 -9.735,-3.455 -1.449,5.723 -0.562,-6.436 -12.202,-4.332 -0.811,5.292 -0.81,-5.867 -22.052,-7.828 c 8.584,12.03 18.417,22.166 27.783,28.621 l -17.541,3.206 c 13.489,14.408 30.665,19.898 42.011,10.373 1.853,1.601 4.237,2.564 6.838,2.564 5.903,0 10.688,-4.956 10.688,-11.069 0,-0.065 -0.001,-0.13 -0.002,-0.194 11.066,11.236 24.819,16.087 29.003,1.92 6.643,-1.994 11.703,-7.25 13.031,-16.964 l -8.199,0.697 -0.73,4.364 -1.123,-4.208 -9.535,0.81 -0.29,8.53 -0.062,-0.011 -1.879,-8.329 -17.725,1.505 0.07,2.596 -0.676,-2.544 -5.436,0.461 0.039,-0.121 c 4.65,-13.956 19.396,-90.211 10.925,-108.195"
             style="fill:#463d3b;fill-opacity:1;fill-rule:evenodd;stroke:none"
             id="path1129" />
        </g>
        <g
           id="g1131"
           transform="translate(322.79,458.2466)">
          <path
             d="M 0,0 -0.468,3.929 -1.041,-0.674 C -0.693,-0.443 -0.347,-0.221 0,0 m 54.812,5.569 -0.01,0.424 -0.073,-0.442 z m -7.458,-121.536 c -1.742,-3.698 -15.806,-3.017 -14.548,1.013 9.486,30.391 2.858,74.727 -2.726,106.243 l -10.991,-3.902 -0.58,4.306 -0.725,-4.769 -9.733,-3.455 -1.45,5.723 -0.562,-6.437 -12.203,-4.332 -0.809,5.292 -0.812,-5.867 -22.051,-7.827 c 8.584,12.029 18.418,22.167 27.782,28.62 l -17.54,3.206 c 13.489,14.408 30.665,19.899 42.01,10.374 1.854,1.6 4.238,2.564 6.839,2.564 5.902,0 10.687,-4.957 10.687,-11.07 0,-0.065 0,-0.13 -10e-4,-0.193 11.066,11.235 24.819,16.087 29.003,1.919 6.644,-1.994 11.704,-7.249 13.032,-16.962 l -8.2,0.695 -0.731,4.365 -1.122,-4.208 -9.536,0.81 -0.29,8.529 -0.061,-0.01 -1.878,-8.329 -17.727,1.504 0.071,2.597 -0.677,-2.545 -5.434,0.462 0.039,-0.12 c 4.648,-13.957 19.394,-90.212 10.924,-108.196"
             style="fill:#463d3b;fill-opacity:1;fill-rule:evenodd;stroke:none"
             id="path1133" />
        </g>
        <g
           id="g1135"
           transform="translate(310.29,420.9292)">
          <path
             d="M 0,0 -0.467,3.93 -1.039,-0.673 C -0.692,-0.442 -0.346,-0.22 0,0 M 54.812,5.57 54.802,5.994 54.73,5.552 Z m -7.458,-121.537 c -1.741,-3.698 -15.806,-3.016 -14.547,1.014 9.484,30.39 2.858,74.726 -2.726,106.243 l -10.992,-3.903 -0.579,4.307 -0.724,-4.77 -9.735,-3.455 -1.449,5.724 -0.562,-6.437 -12.202,-4.332 -0.81,5.291 -0.811,-5.867 -22.051,-7.827 c 8.583,12.03 18.416,22.167 27.782,28.62 l -17.541,3.207 c 13.489,14.408 30.666,19.898 42.011,10.374 1.854,1.6 4.237,2.562 6.839,2.562 5.902,0 10.687,-4.955 10.687,-11.069 0,-0.064 -0.001,-0.129 -0.003,-0.193 11.068,11.236 24.82,16.087 29.005,1.919 6.643,-1.993 11.703,-7.249 13.031,-16.963 l -8.199,0.696 -0.731,4.365 -1.122,-4.208 -9.537,0.811 -0.289,8.529 -0.062,-0.011 -1.879,-8.329 -17.725,1.505 0.071,2.596 -0.678,-2.544 -5.435,0.461 0.04,-0.121 c 4.648,-13.957 19.395,-90.212 10.923,-108.195"
             style="fill:#463d3b;fill-opacity:1;fill-rule:evenodd;stroke:none"
             id="path1137" />
        </g>
        <g
           id="g1139"
           transform="translate(142.2983,406.3374)">
          <path
             d="M 0,0 -0.467,3.93 -1.04,-0.673 C -0.693,-0.443 -0.347,-0.22 0,0 M 54.813,5.57 54.801,5.994 54.73,5.551 Z m -7.459,-121.537 c -1.742,-3.7 -15.806,-3.017 -14.548,1.014 9.486,30.39 2.858,74.726 -2.726,106.242 l -10.991,-3.902 -0.58,4.307 -0.724,-4.77 -9.735,-3.455 -1.449,5.724 -0.561,-6.438 -12.203,-4.331 -0.81,5.292 -0.81,-5.867 -22.052,-7.828 c 8.584,12.03 18.417,22.167 27.782,28.62 l -17.54,3.207 c 13.489,14.408 30.665,19.899 42.01,10.374 1.854,1.6 4.237,2.563 6.839,2.563 5.903,0 10.688,-4.956 10.688,-11.07 0,-0.065 -0.001,-0.129 -0.002,-0.193 11.065,11.235 24.819,16.088 29.003,1.92 6.643,-1.994 11.703,-7.249 13.031,-16.964 l -8.199,0.697 -0.731,4.364 -1.123,-4.207 -9.535,0.81 -0.29,8.529 -0.062,-0.012 -1.878,-8.328 -17.726,1.505 0.071,2.596 -0.677,-2.545 -5.436,0.461 0.04,-0.119 c 4.649,-13.957 19.396,-90.213 10.924,-108.196"
             style="fill:#463d3b;fill-opacity:1;fill-rule:evenodd;stroke:none"
             id="path1141" />
        </g>
        <g
           id="g1143"
           transform="translate(400.0479,448.1011)">
          <path
             d="M 0,0 -0.466,3.93 -1.039,-0.673 C -0.692,-0.442 -0.346,-0.22 0,0 M 54.814,5.569 54.802,5.994 54.73,5.551 Z m -7.459,-121.536 c -1.742,-3.699 -15.805,-3.016 -14.546,1.014 9.483,30.39 2.856,74.726 -2.727,106.243 l -10.992,-3.903 -0.579,4.306 -0.725,-4.769 -9.734,-3.455 -1.449,5.724 -0.562,-6.438 -12.203,-4.332 -0.81,5.292 -0.81,-5.867 -22.052,-7.827 c 8.584,12.03 18.417,22.166 27.783,28.62 l -17.542,3.206 c 13.49,14.408 30.667,19.899 42.012,10.374 1.853,1.6 4.237,2.563 6.839,2.563 5.902,0 10.687,-4.955 10.687,-11.069 0,-0.064 -0.002,-0.13 -0.003,-0.193 11.066,11.235 24.821,16.087 29.005,1.919 6.643,-1.993 11.703,-7.249 13.031,-16.962 l -8.2,0.695 -0.731,4.365 -1.122,-4.208 -9.535,0.81 -0.29,8.53 -0.062,-0.011 -1.88,-8.329 -17.724,1.504 0.071,2.597 -0.678,-2.545 -5.436,0.462 0.041,-0.12 c 4.649,-13.957 19.395,-90.213 10.923,-108.196"
             style="fill:#463d3b;fill-opacity:1;fill-rule:evenodd;stroke:none"
             id="path1145" />
        </g>
        <g
           id="g1147"
           transform="translate(360.4248,424.71)">
          <path
             d="M 0,0 -0.468,3.93 -1.039,-0.673 C -0.692,-0.443 -0.346,-0.22 0,0 M 54.814,5.57 54.802,5.994 54.73,5.552 Z m -7.459,-121.537 c -1.743,-3.697 -15.806,-3.016 -14.549,1.015 9.486,30.39 2.859,74.725 -2.726,106.241 l -10.99,-3.902 -0.579,4.306 -0.726,-4.768 -9.733,-3.455 -1.449,5.723 -0.563,-6.437 -12.203,-4.332 -0.809,5.291 -0.811,-5.866 -22.052,-7.828 c 8.584,12.03 18.418,22.167 27.783,28.621 l -17.541,3.206 c 13.491,14.408 30.665,19.898 42.011,10.374 1.854,1.6 4.237,2.563 6.839,2.563 5.902,0 10.686,-4.956 10.686,-11.069 0,-0.066 0,-0.13 -10e-4,-0.194 11.066,11.236 24.82,16.088 29.004,1.92 6.643,-1.994 11.702,-7.25 13.031,-16.964 l -8.2,0.697 -0.73,4.364 -1.123,-4.207 -9.535,0.81 -0.289,8.529 -0.063,-0.011 -1.879,-8.329 -17.724,1.505 0.071,2.596 -0.678,-2.544 -5.436,0.461 0.04,-0.12 c 4.649,-13.957 19.395,-90.212 10.924,-108.196"
             style="fill:#463d3b;fill-opacity:1;fill-rule:evenodd;stroke:none"
             id="path1149" />
        </g>
        <g
           id="g1151"
           transform="translate(447.0029,485.8877)">
          <path
             d="M 0,0 -0.601,5.05 -1.337,-0.866 C -0.891,-0.569 -0.444,-0.282 0,0 m 70.439,7.157 -0.014,0.546 -0.092,-0.57 z m -9.585,-156.184 c -2.238,-4.754 -20.312,-3.878 -18.695,1.302 12.19,39.054 3.673,96.031 -3.504,136.53 l -14.124,-5.015 -0.744,5.535 -0.932,-6.128 -12.507,-4.441 -1.865,7.355 -0.721,-8.272 -15.682,-5.567 -1.04,6.801 -1.043,-7.54 -28.338,-10.058 c 11.032,15.459 23.668,28.485 35.704,36.778 l -22.542,4.121 c 17.334,18.515 39.407,25.571 53.988,13.331 2.381,2.057 5.444,3.294 8.789,3.294 7.584,0 13.733,-6.369 13.733,-14.224 0,-0.084 -0.001,-0.167 -0.002,-0.249 14.22,14.438 31.895,20.673 37.273,2.467 8.536,-2.562 15.039,-9.316 16.746,-21.799 l -10.538,0.893 -0.94,5.609 -1.441,-5.406 -12.255,1.041 -0.372,10.961 -0.079,-0.015 -2.415,-10.703 -22.779,1.934 0.091,3.336 -0.869,-3.269 -6.986,0.592 0.05,-0.153 c 5.975,-17.937 24.926,-115.932 14.039,-139.041"
             style="fill:#463d3b;fill-opacity:1;fill-rule:evenodd;stroke:none"
             id="path1153" />
        </g>
        <g
           id="g1155"
           transform="translate(429.6279,453.9316)">
          <path
             d="M 0,0 -0.492,4.144 -1.095,-0.71 C -0.73,-0.467 -0.364,-0.232 0,0 M 57.806,5.874 57.793,6.321 57.717,5.854 Z m -7.867,-128.168 c -1.837,-3.901 -16.668,-3.183 -15.342,1.067 10.004,32.05 3.016,78.806 -2.874,112.041 l -11.591,-4.116 -0.612,4.542 -0.763,-5.029 -10.266,-3.644 -1.528,6.036 -0.593,-6.788 -12.869,-4.569 -0.853,5.581 -0.854,-6.187 -23.256,-8.255 c 9.053,12.686 19.422,23.376 29.299,30.182 l -18.498,3.382 c 14.225,15.194 32.339,20.984 44.303,10.939 1.955,1.688 4.469,2.704 7.211,2.704 6.226,0 11.272,-5.227 11.272,-11.674 0,-0.068 0,-0.136 -0.002,-0.204 11.67,11.849 26.173,16.965 30.586,2.024 7.005,-2.102 12.341,-7.644 13.742,-17.888 l -8.647,0.734 -0.771,4.602 -1.184,-4.436 -10.056,0.853 -0.305,8.996 -0.064,-0.012 -1.982,-8.784 -18.694,1.588 0.075,2.738 -0.713,-2.684 -5.733,0.486 0.042,-0.126 c 4.903,-14.719 20.453,-95.134 11.52,-114.099"
             style="fill:#463d3b;fill-opacity:1;fill-rule:evenodd;stroke:none"
             id="path1157" />
        </g>
        <g
           id="g1159"
           transform="translate(501.3311,453.251)">
          <path
             d="M 0,0 -0.492,4.143 -1.096,-0.71 C -0.73,-0.468 -0.364,-0.232 0,0 M 57.804,5.873 57.792,6.32 57.716,5.854 Z m -7.866,-128.168 c -1.835,-3.899 -16.668,-3.182 -15.341,1.069 10.002,32.049 3.015,78.804 -2.875,112.039 l -11.59,-4.115 -0.612,4.542 -0.764,-5.03 -10.266,-3.643 -1.528,6.035 -0.594,-6.788 -12.867,-4.568 -0.854,5.58 -0.855,-6.187 -23.254,-8.254 c 9.051,12.686 19.421,23.375 29.298,30.182 l -18.498,3.381 c 14.225,15.195 32.339,20.984 44.303,10.94 1.954,1.688 4.468,2.704 7.212,2.704 6.225,0 11.27,-5.228 11.27,-11.675 0,-0.068 0,-0.136 -0.002,-0.204 11.67,11.849 26.174,16.967 30.587,2.025 2.135,-0.641 4.114,-1.602 5.874,-2.917 v -14.303 l -0.779,0.065 -0.771,4.602 -1.182,-4.436 -10.057,0.854 -0.306,8.996 -0.065,-0.013 -1.982,-8.783 -18.693,1.587 0.075,2.738 -0.714,-2.684 -5.732,0.487 0.042,-0.126 c 4.903,-14.719 20.454,-95.135 11.52,-114.1"
             style="fill:#463d3b;fill-opacity:1;fill-rule:evenodd;stroke:none"
             id="path1161" />
        </g>
        <g
           id="g1163"
           transform="translate(239.8916,402.9956)">
          <path
             d="M 0,0 0.467,3.93 1.039,-0.673 C 0.692,-0.442 0.346,-0.22 0,0 m -54.814,5.569 0.012,0.425 0.072,-0.443 z m 7.459,-121.535 c 1.742,-3.699 15.806,-3.018 14.548,1.012 -9.485,30.391 -2.857,74.727 2.725,106.242 l 10.993,-3.901 0.579,4.306 0.724,-4.769 9.735,-3.455 1.448,5.723 0.563,-6.438 12.202,-4.33 0.81,5.291 0.81,-5.866 22.052,-7.828 c -8.583,12.03 -18.417,22.167 -27.782,28.62 l 17.54,3.206 c -13.489,14.409 -30.665,19.899 -42.01,10.374 -1.854,1.601 -4.237,2.563 -6.839,2.563 -5.902,0 -10.688,-4.955 -10.688,-11.069 0,-0.065 0.002,-0.129 0.002,-0.193 -11.065,11.235 -24.819,16.087 -29.003,1.919 -6.643,-1.994 -11.703,-7.249 -13.031,-16.963 l 8.2,0.696 0.73,4.365 1.123,-4.208 9.535,0.81 0.29,8.53 0.061,-0.012 1.88,-8.328 17.725,1.504 -0.071,2.597 0.677,-2.545 5.436,0.462 -0.04,-0.121 c -4.649,-13.957 -19.395,-90.211 -10.924,-108.194"
             style="fill:#463d3b;fill-opacity:1;fill-rule:evenodd;stroke:none"
             id="path1165" />
        </g>
        <g
           id="g1167"
           transform="translate(191.6069,413.4897)">
          <path
             d="M 0,0 0.467,3.929 1.04,-0.674 C 0.692,-0.443 0.346,-0.22 0,0 m -54.813,5.569 0.01,0.424 0.074,-0.442 z m 7.459,-121.535 c 1.741,-3.699 15.806,-3.018 14.547,1.013 -9.485,30.391 -2.857,74.726 2.726,106.242 l 10.992,-3.902 0.579,4.306 0.724,-4.769 9.735,-3.455 1.449,5.723 0.563,-6.437 12.201,-4.331 0.811,5.291 0.81,-5.867 22.052,-7.827 c -8.584,12.03 -18.416,22.167 -27.783,28.62 l 17.54,3.207 c -13.488,14.407 -30.664,19.899 -42.01,10.373 -1.853,1.6 -4.237,2.564 -6.839,2.564 -5.902,0 -10.687,-4.957 -10.687,-11.07 0,-0.065 0.001,-0.129 0.002,-0.193 -11.066,11.235 -24.819,16.087 -29.004,1.919 -6.643,-1.994 -11.703,-7.249 -13.03,-16.963 l 8.199,0.696 0.731,4.364 1.122,-4.206 9.536,0.809 0.289,8.53 0.061,-0.012 1.881,-8.328 17.725,1.505 -0.071,2.596 0.677,-2.545 5.436,0.462 -0.041,-0.12 c -4.648,-13.957 -19.395,-90.212 -10.923,-108.195"
             style="fill:#463d3b;fill-opacity:1;fill-rule:evenodd;stroke:none"
             id="path1169" />
        </g>
        <g
           id="g1171"
           transform="translate(120.9858,396.8354)">
          <path
             d="M 0,0 0.25,2.107 0.557,-0.361 C 0.371,-0.238 0.185,-0.118 0,0 m -29.389,2.986 0.005,0.227 0.04,-0.236 z m 3.999,-65.163 c 0.934,-1.983 8.475,-1.618 7.8,0.543 -5.085,16.294 -1.532,40.066 1.461,56.964 l 5.894,-2.093 0.311,2.309 0.387,-2.557 5.22,-1.852 0.777,3.068 0.302,-3.451 6.542,-2.322 0.434,2.837 0.434,-3.146 11.825,-4.197 C 11.394,-9.624 6.122,-4.188 1.1,-0.728 l 9.405,1.719 C 3.273,8.716 -5.936,11.659 -12.02,6.552 c -0.994,0.859 -2.272,1.375 -3.667,1.375 -3.164,0 -5.73,-2.657 -5.73,-5.935 0,-0.035 0.001,-0.07 0.001,-0.104 -5.933,6.024 -13.307,8.626 -15.55,1.03 C -38.29,2.52 -39.497,1.88 -40.527,0.967 v -6.854 l 0.97,0.082 0.392,2.341 0.602,-2.256 5.112,0.434 0.156,4.574 0.033,-0.007 1.007,-4.466 9.504,0.807 -0.038,1.392 0.363,-1.364 2.915,0.247 -0.022,-0.064 c -2.492,-7.483 -10.399,-48.369 -5.857,-58.01"
             style="fill:#463d3b;fill-opacity:1;fill-rule:evenodd;stroke:none"
             id="path1173" />
        </g>
        <g
           id="g1175"
           transform="translate(366.8818,399.5117)">
          <path
             d="M 0,0 0.599,5.05 1.336,-0.865 C 0.889,-0.569 0.443,-0.283 0,0 m -70.44,7.157 0.014,0.545 0.093,-0.568 z m 9.584,-156.184 c 2.239,-4.753 20.313,-3.876 18.697,1.302 -12.19,39.055 -3.674,96.03 3.502,136.53 l 14.126,-5.013 0.744,5.533 0.932,-6.129 12.507,-4.44 1.863,7.356 0.722,-8.273 15.682,-5.566 1.04,6.799 1.042,-7.538 28.339,-10.059 C 27.308,-23.066 14.672,-10.039 2.637,-1.746 l 22.542,4.121 c -17.334,18.515 -39.408,25.571 -53.988,13.33 -2.382,2.057 -5.446,3.294 -8.789,3.294 -7.586,0 -13.734,-6.368 -13.734,-14.225 0,-0.083 10e-4,-0.166 0.002,-0.249 -14.221,14.439 -31.894,20.674 -37.272,2.468 -8.537,-2.563 -15.04,-9.316 -16.746,-21.8 l 10.537,0.895 0.94,5.609 1.442,-5.407 12.254,1.041 0.372,10.961 0.079,-0.015 2.415,-10.703 22.779,1.934 -0.091,3.336 0.87,-3.27 6.986,0.594 -0.052,-0.155 c -5.974,-17.936 -24.926,-115.93 -14.039,-139.04"
             style="fill:#463d3b;fill-opacity:1;fill-rule:evenodd;stroke:none"
             id="path1177" />
        </g>
        <g
           id="g1179"
           transform="translate(455.3125,399.5332)">
          <path
             d="M 0,0 0.347,2.921 0.772,-0.501 C 0.515,-0.329 0.257,-0.164 0,0 m -40.746,4.14 0.009,0.316 0.054,-0.33 z m 5.545,-90.343 c 1.295,-2.75 11.75,-2.243 10.814,0.753 -7.05,22.591 -2.124,55.548 2.027,78.974 l 8.172,-2.9 0.429,3.202 0.537,-3.545 7.237,-2.569 1.077,4.255 0.418,-4.786 9.07,-3.219 0.603,3.933 0.602,-4.361 16.393,-5.818 C 15.797,-13.342 8.487,-5.808 1.525,-1.01 l 13.04,2.383 c -10.028,10.71 -22.796,14.792 -31.23,7.711 -1.378,1.19 -3.148,1.906 -5.083,1.906 -4.387,0 -7.945,-3.684 -7.945,-8.229 0,-0.047 0.002,-0.096 0.003,-0.143 -8.227,8.352 -18.451,11.958 -21.561,1.427 -4.938,-1.482 -8.699,-5.389 -9.686,-12.61 l 6.094,0.518 0.544,3.244 0.834,-3.128 7.088,0.603 0.216,6.34 0.046,-0.009 1.397,-6.191 13.175,1.119 -0.052,1.93 0.503,-1.892 4.041,0.344 -0.029,-0.09 c -3.457,-10.374 -14.418,-67.059 -8.121,-80.426"
             style="fill:#463d3b;fill-opacity:1;fill-rule:evenodd;stroke:none"
             id="path1181" />
        </g>
        <g
           id="g1183"
           transform="translate(561.3857,423.1509)">
          <path
             d="M 0,0 0.466,3.93 1.038,-0.673 C 0.691,-0.442 0.345,-0.22 0,0 m -54.813,5.57 0.009,0.424 0.075,-0.442 z m 7.459,-121.537 c 1.74,-3.698 15.805,-3.016 14.547,1.013 -9.485,30.391 -2.859,74.728 2.725,106.243 l 10.992,-3.902 0.579,4.307 0.724,-4.769 9.735,-3.456 1.448,5.723 0.564,-6.437 12.201,-4.331 0.811,5.292 0.81,-5.867 10.745,-3.814 v 9.962 C 13.103,-10.11 7.499,-5.112 2.052,-1.358 l 16.475,3.011 v 1.303 c -13.317,13.575 -29.895,18.541 -40.946,9.265 -1.853,1.601 -4.238,2.564 -6.839,2.564 -5.902,0 -10.687,-4.956 -10.687,-11.07 0,-0.064 10e-4,-0.129 0.003,-0.193 -11.067,11.235 -24.82,16.088 -29.005,1.919 -6.643,-1.993 -11.702,-7.248 -13.03,-16.962 l 8.2,0.696 0.729,4.364 1.124,-4.207 9.535,0.81 0.289,8.529 0.062,-0.012 1.879,-8.328 17.725,1.505 -0.071,2.596 0.678,-2.545 5.435,0.462 -0.04,-0.12 c -4.649,-13.957 -19.395,-90.213 -10.922,-108.196"
             style="fill:#463d3b;fill-opacity:1;fill-rule:evenodd;stroke:none"
             id="path1185" />
        </g>
        <g
           id="g1187"
           transform="translate(572.3291,392.1084)">
          <path
             d="M 0,0 0.231,1.951 0.516,-0.335 C 0.343,-0.22 0.171,-0.109 0,0 m -27.207,2.764 0.006,0.211 0.036,-0.219 z m 3.703,-60.325 c 0.862,-1.836 7.846,-1.497 7.22,0.503 -4.708,15.084 -1.419,37.091 1.353,52.734 l 5.456,-1.937 0.288,2.138 0.359,-2.367 4.832,-1.716 0.719,2.841 0.28,-3.195 6.056,-2.15 0.402,2.627 0.402,-2.913 3.721,-1.32 v 6.06 C 5.403,-4.058 3.185,-2.169 1.019,-0.675 L 7.584,0.526 V 2.998 C 1.29,8.554 -6.08,10.302 -11.127,6.066 c -0.921,0.795 -2.104,1.272 -3.396,1.272 -2.928,0 -5.303,-2.459 -5.303,-5.494 V 1.748 c -5.492,5.577 -12.319,7.985 -14.396,0.953 -3.299,-0.99 -5.809,-3.599 -6.468,-8.42 l 4.071,0.345 0.362,2.166 0.556,-2.087 4.734,0.401 0.143,4.234 0.031,-0.005 0.934,-4.134 8.797,0.746 -0.036,1.289 0.336,-1.263 2.698,0.229 -0.019,-0.059 c -2.308,-6.928 -9.627,-44.778 -5.421,-53.704"
             style="fill:#463d3b;fill-opacity:1;fill-rule:evenodd;stroke:none"
             id="path1189" />
        </g>
        <g
           id="g1191"
           transform="translate(473.0654,422.4673)">
          <path
             d="M 0,0 0.468,3.93 1.04,-0.673 C 0.692,-0.442 0.347,-0.219 0,0 m -54.813,5.57 0.011,0.424 0.073,-0.443 z m 7.459,-121.536 c 1.742,-3.699 15.805,-3.017 14.548,1.013 -9.486,30.39 -2.858,74.726 2.726,106.242 l 10.991,-3.902 0.58,4.307 0.725,-4.77 9.733,-3.455 1.45,5.724 0.561,-6.438 12.203,-4.331 0.811,5.292 0.81,-5.867 22.052,-7.827 C 21.251,-17.948 11.42,-7.812 2.053,-1.359 l 17.54,3.207 c -13.487,14.408 -30.664,19.899 -42.01,10.373 -1.853,1.601 -4.237,2.564 -6.839,2.564 -5.902,0 -10.686,-4.956 -10.686,-11.07 0,-0.064 0,-0.129 10e-4,-0.193 -11.066,11.236 -24.819,16.087 -29.004,1.92 -6.643,-1.994 -11.703,-7.249 -13.031,-16.963 l 8.2,0.695 0.731,4.365 1.121,-4.207 9.536,0.81 0.29,8.529 0.061,-0.011 1.88,-8.329 17.726,1.505 -0.071,2.596 0.676,-2.545 5.436,0.462 -0.04,-0.12 c -4.648,-13.957 -19.395,-90.213 -10.924,-108.195"
             style="fill:#463d3b;fill-opacity:1;fill-rule:evenodd;stroke:none"
             id="path1193" />
        </g>
        <g
           id="g1195"
           transform="translate(497.292,392.062)">
          <path
             d="m 0,0 0.233,1.964 0.287,-2.3 C 0.347,-0.222 0.173,-0.11 0,0 m -27.407,2.785 0.007,0.212 0.035,-0.222 z m 3.73,-60.769 c 0.87,-1.849 7.903,-1.508 7.275,0.507 -4.744,15.195 -1.43,37.364 1.362,53.121 l 5.496,-1.951 0.289,2.153 0.362,-2.384 4.868,-1.728 0.724,2.862 0.281,-3.219 6.102,-2.165 0.404,2.645 0.406,-2.933 11.026,-3.913 C 10.626,-8.975 5.709,-3.907 1.026,-0.68 l 8.771,1.603 c -6.745,7.205 -15.332,9.95 -21.007,5.187 -0.926,0.8 -2.117,1.283 -3.418,1.283 -2.951,0 -5.344,-2.479 -5.344,-5.536 V 1.761 c -5.532,5.617 -12.408,8.044 -14.502,0.959 -3.32,-0.997 -5.85,-3.624 -6.514,-8.482 l 4.099,0.349 0.366,2.182 0.562,-2.103 4.768,0.404 0.143,4.265 0.031,-0.006 0.94,-4.164 8.863,0.752 -0.035,1.299 0.338,-1.273 2.719,0.231 -0.021,-0.06 c -2.323,-6.978 -9.697,-45.107 -5.462,-54.098"
             style="fill:#463d3b;fill-opacity:1;fill-rule:evenodd;stroke:none"
             id="path1197" />
        </g>
        <g
           id="g1199"
           transform="translate(271.8906,397.6279)">
          <path
             d="M 0,0 0.232,1.951 0.516,-0.334 C 0.343,-0.22 0.171,-0.109 0,0 m -27.207,2.765 0.005,0.211 0.036,-0.221 z m 3.702,-60.326 c 0.864,-1.836 7.845,-1.497 7.221,0.503 -4.708,15.084 -1.418,37.091 1.352,52.734 l 5.457,-1.936 0.287,2.137 0.359,-2.367 4.832,-1.716 0.719,2.841 0.279,-3.194 6.057,-2.151 0.402,2.627 0.403,-2.912 10.946,-3.885 C 10.547,-8.909 5.667,-3.877 1.018,-0.674 l 8.708,1.591 c -6.697,7.152 -15.222,9.877 -20.853,5.149 -0.921,0.795 -2.104,1.272 -3.395,1.272 -2.93,0 -5.305,-2.459 -5.305,-5.494 0,-0.032 0.001,-0.064 0.001,-0.095 -5.492,5.576 -12.319,7.984 -14.396,0.952 -3.298,-0.989 -5.809,-3.598 -6.468,-8.42 l 4.07,0.345 0.362,2.167 0.558,-2.089 4.733,0.403 0.144,4.234 0.03,-0.007 0.933,-4.134 8.798,0.748 -0.036,1.289 0.337,-1.263 2.698,0.228 -0.02,-0.059 c -2.307,-6.928 -9.627,-44.778 -5.422,-53.704"
             style="fill:#463d3b;fill-opacity:1;fill-rule:evenodd;stroke:none"
             id="path1201" />
        </g>
        <g
           id="g1203"
           transform="translate(105.2383,238.375)">
          <path
             d="M 0,0 136.542,162.145 241.196,57.042 143.332,149.013 169.369,83.543 135.01,151.289 Z"
             style="fill:#fcfaa7;fill-opacity:1;fill-rule:evenodd;stroke:none"
             id="path1205" />
        </g>
        <g
           id="g1207"
           transform="translate(185.4282,235.8057)">
          <path
             d="M 0,0 202.457,234.462 340.253,-63.212 Z"
             style="fill:#463d3b;fill-opacity:1;fill-rule:evenodd;stroke:none"
             id="path1209" />
        </g>
        <g
           id="g1211"
           transform="translate(525.6816,172.5938)">
          <path
             d="M 0,0 -137.796,297.674 40.963,128.859 Z"
             style="fill:#463d3b;fill-opacity:1;fill-rule:evenodd;stroke:none"
             id="path1213" />
        </g>
        <g
           id="g1215"
           transform="translate(152.6514,197.5654)">
          <path
             d="M 0,0 237.241,281.725 419.074,99.111 249.038,258.909 294.276,145.156 234.578,262.864 Z"
             style="fill:#fcfaa7;fill-opacity:1;fill-rule:evenodd;stroke:none"
             id="path1217" />
        </g>
        <g
           id="g1219"
           transform="translate(85.9331,152.5762)">
          <path
             d="M 0,0 C 175.844,-20.42 360.894,56.759 479.167,6.95 347.63,45.175 158.064,-31.713 0,0"
             style="fill:#fcfaa7;fill-opacity:1;fill-rule:evenodd;stroke:none"
             id="path1221" />
        </g>
      </g>
    </g>
  </g>
</svg>
