<?xml version="1.0" encoding="UTF-8" standalone="no"?>
<!-- Created with Inkscape (http://www.inkscape.org/) -->

<svg
   version="1.1"
   id="svg1580"
   width="880"
   height="880"
   viewBox="0 0 880 880"
   sodipodi:docname="windmill-power-generator [Converted].svg"
   inkscape:version="1.2 (dc2aedaf03, 2022-05-15)"
   xmlns:inkscape="http://www.inkscape.org/namespaces/inkscape"
   xmlns:sodipodi="http://sodipodi.sourceforge.net/DTD/sodipodi-0.dtd"
   xmlns="http://www.w3.org/2000/svg"
   xmlns:svg="http://www.w3.org/2000/svg">
  <defs
     id="defs1584">
    <clipPath
       clipPathUnits="userSpaceOnUse"
       id="clipPath1606">
      <path
         d="M 0,660 H 660 V 0 H 0 Z"
         id="path1604" />
    </clipPath>
  </defs>
  <sodipodi:namedview
     id="namedview1582"
     pagecolor="#ffffff"
     bordercolor="#000000"
     borderopacity="0.25"
     inkscape:showpageshadow="2"
     inkscape:pageopacity="0.0"
     inkscape:pagecheckerboard="0"
     inkscape:deskcolor="#d1d1d1"
     showgrid="false"
     inkscape:zoom="0.95113636"
     inkscape:cx="440.52569"
     inkscape:cy="440.52569"
     inkscape:window-width="1920"
     inkscape:window-height="1017"
     inkscape:window-x="-8"
     inkscape:window-y="-8"
     inkscape:window-maximized="1"
     inkscape:current-layer="g1588">
    <inkscape:page
       x="0"
       y="0"
       id="page1586"
       width="880"
       height="880" />
  </sodipodi:namedview>
  <g
     id="g1588"
     inkscape:groupmode="layer"
     inkscape:label="Page 1"
     transform="matrix(1.3333333,0,0,-1.3333333,0,880)">
    <path
       d="m 65.934,93.543 h 533.09 v 533.09 H 65.934 Z"
       style="fill:#79c2d9;fill-opacity:1;fill-rule:evenodd;stroke:none"
       id="path1590" />
    <g
       id="g1592"
       transform="translate(599.0244,358.085)">
      <path
         d="M 0,0 -396.982,56.196 0,15.879 Z"
         style="fill:#a3e1f4;fill-opacity:1;fill-rule:evenodd;stroke:none"
         id="path1594" />
    </g>
    <g
       id="g1596"
       transform="translate(599.0244,480.0669)">
      <path
         d="M 0,0 -533.09,55.01 0,15.878 Z"
         style="fill:#a3e1f4;fill-opacity:1;fill-rule:evenodd;stroke:none"
         id="path1598" />
    </g>
    <g
       id="g1600">
      <g
         id="g1602"
         clip-path="url(#clipPath1606)">
        <g
           id="g1608"
           transform="translate(599.0244,328.2881)">
          <path
             d="m 0,0 v -92.379 c -5.005,3.166 -8.906,7.248 -11.224,11.889 -4.763,-1.148 -9.85,-1.771 -15.138,-1.771 -20.703,0 -38.371,9.528 -45.326,22.938 -13.833,0.47 -25.995,5.632 -33.607,13.365 -7.189,-8.046 -19.581,-13.361 -33.667,-13.361 -12.994,0 -24.548,4.525 -31.903,11.542 -5.585,-1.562 -11.644,-2.421 -17.976,-2.421 -19.263,0 -36.006,7.925 -44.512,19.578 -0.241,-0.005 -0.48,-0.007 -0.724,-0.007 -6.383,0 -12.334,1.353 -17.354,3.688 -9.045,-10.239 -24.751,-17.012 -42.61,-17.012 -13.276,0 -25.36,3.744 -34.406,9.871 -6.759,-4.086 -15.419,-6.541 -24.858,-6.541 -10.291,0 -19.651,2.918 -26.637,7.686 -6.253,-8.071 -18.073,-13.515 -31.625,-13.515 -5.654,0 -11.007,0.947 -15.779,2.637 -4.514,-2.443 -10.092,-3.885 -16.13,-3.885 -0.399,0 -0.796,0.007 -1.191,0.019 0.036,-0.49 0.057,-0.982 0.057,-1.478 0,-14.373 -15.869,-26.026 -35.445,-26.026 -3.715,0 -7.296,0.421 -10.662,1.199 -4.226,-11.034 -18.032,-19.123 -34.41,-19.123 -2.719,0 -5.386,0.224 -7.963,0.647 v 65.289 c 6.772,0.879 13.606,-3.071 18.99,-14.725 12.735,24.637 33.787,34.475 43.836,17.756 9.644,20.631 19.712,26.443 26.225,16.412 19.551,33.45 49.191,42.354 55.637,8.554 17.9,26.046 41.957,32.799 52.124,13.162 36.8,45.623 77.468,39.054 84.979,-0.563 12.083,21.027 22.343,16.194 29.89,1.747 22.793,36.218 53.778,30.682 70.197,-3.61 15.526,34.8 56.918,30.166 68.102,-7.871 18.538,21.489 39.82,21.133 51.848,-14.926 C -22.142,7.809 -10.325,8.607 0,0"
             style="fill:#a3e1f4;fill-opacity:1;fill-rule:evenodd;stroke:none"
             id="path1610" />
        </g>
        <g
           id="g1612"
           transform="translate(583.8594,421.9897)">
          <path
             d="m 0,0 -30.885,2.727 c -0.464,-1.278 -1.122,-2.523 -1.977,-3.686 -4.115,-5.587 -11.242,-7.122 -15.915,-3.429 -0.575,0.454 -1.086,0.967 -1.532,1.526 -7.274,-5.401 -17.169,-5.66 -24.414,0.063 -0.649,0.515 -1.259,1.063 -1.831,1.641 -6.237,-6.169 -16.459,-6.608 -24.016,-0.635 -3.764,2.972 -6.221,7.021 -7.237,11.31 l -26.902,2.375 26.373,2.186 c 0.012,3.739 1.121,7.437 3.422,10.559 3.199,4.345 8.044,6.684 13.134,6.877 0.163,0.249 0.332,0.495 0.511,0.739 4.469,6.065 12.075,7.834 16.994,3.949 1.029,-0.813 1.858,-1.811 2.486,-2.934 7.069,4.297 16.054,4.128 22.764,-1.175 4.527,-3.577 7.151,-8.806 7.725,-14.347 2.639,0.385 5.289,-0.211 7.425,-1.899 2.146,-1.694 3.399,-4.195 3.733,-6.944 z"
             style="fill:#a3e1f4;fill-opacity:1;fill-rule:evenodd;stroke:none"
             id="path1614" />
        </g>
        <g
           id="g1616"
           transform="translate(79.0737,444.3921)">
          <path
             d="m 0,0 50.242,-0.323 c 0.274,-1.769 0.904,-3.507 1.921,-5.153 5.204,-8.421 18.525,-11.227 29.754,-6.268 3.642,1.609 6.615,3.836 8.794,6.399 5.998,-7.455 16.149,-10.728 23.863,-7.322 0.895,0.395 1.719,0.864 2.475,1.398 7.664,-8.116 20.471,-11.083 30.792,-6.525 7.444,3.287 11.825,9.707 12.377,16.766 l 37.922,-0.244 -38.062,4.561 c -0.403,2.842 -1.425,5.708 -3.115,8.439 -6.835,11.061 -22.003,15.778 -33.878,10.534 -3.353,-1.481 -6.085,-3.599 -8.126,-6.123 -6.015,5.101 -14.23,6.963 -20.719,4.097 C 92.209,19.34 90.533,18.061 89.233,16.511 82.835,21.665 72.254,22.805 63.071,18.749 56.43,15.815 52.007,10.822 50.581,5.489 Z"
             style="fill:#a3e1f4;fill-opacity:1;fill-rule:evenodd;stroke:none"
             id="path1618" />
        </g>
        <g
           id="g1620"
           transform="translate(261.5718,483.7891)">
          <path
             d="m 0,0 39.826,-2.355 c 0.298,-1.955 0.851,-3.902 1.673,-5.769 3.954,-8.976 12.65,-12.67 19.423,-8.251 0.833,0.543 1.597,1.185 2.291,1.907 8.006,-9.351 20.508,-11.754 31.005,-4.906 0.943,0.615 1.839,1.29 2.697,2.014 6.515,-10.256 19.394,-12.991 30.347,-5.843 5.449,3.556 9.49,8.949 11.754,14.982 l 34.69,-2.051 -32.982,8.582 c 0.835,5.444 0.268,11.054 -1.943,16.07 -3.074,6.98 -8.693,11.377 -15.11,12.7 -0.151,0.397 -0.312,0.79 -0.483,1.181 -4.295,9.744 -13.549,13.876 -20.674,9.228 -1.491,-0.974 -2.769,-2.256 -3.824,-3.763 -7.997,7.702 -19.44,9.295 -29.162,2.952 -6.56,-4.28 -11.083,-11.355 -13.07,-19.303 -3.263,1.1 -6.759,0.776 -9.855,-1.245 -3.106,-2.026 -5.268,-5.407 -6.317,-9.341 z"
             style="fill:#a3e1f4;fill-opacity:1;fill-rule:evenodd;stroke:none"
             id="path1622" />
        </g>
        <g
           id="g1624"
           transform="translate(339.0059,463.6128)">
          <path
             d="m 0,0 c 1.542,-29.122 3.234,-61.425 5.13,-97.332 2.125,-40.269 4.536,-85.777 7.268,-137.376 h -31.557 c 0.786,52.719 1.477,99.009 2.083,139.933 0.54,36.435 1.024,69.08 1.469,98.511 -0.994,0.25 -1.976,0.498 -2.968,0.778 0.011,-1.426 0.021,-2.88 0.031,-4.306 -4.961,-6.82 -10.046,-13.823 -15.247,-20.984 -5.33,-7.339 -10.798,-14.898 -16.408,-22.609 -5.534,-0.793 -11.07,-1.555 -16.618,-2.319 6.654,10.017 13.106,19.725 19.346,29.102 6.052,9.095 11.905,17.921 17.575,26.467 -0.525,0.913 -0.816,1.886 -0.858,2.887 -1.772,1.044 -3.529,2.087 -5.288,3.131 -5.544,14.361 -10.809,27.969 -15.816,40.913 2.038,4.021 4.055,7.98 6.041,11.908 3.686,-7.562 7.506,-15.33 11.42,-23.254 4.061,-8.22 8.227,-16.687 12.529,-25.451 0.603,-0.035 1.199,-0.13 1.793,-0.287 0.318,-0.093 0.636,-0.185 0.964,-0.249 1.459,0.838 2.921,1.706 4.379,2.545 C -6.819,20.981 1.134,19.922 9.094,18.899 17.08,17.872 25.109,16.818 33.142,15.793 36.253,12.081 39.392,8.37 42.596,4.568 36.755,4.939 30.923,5.326 25.114,5.711 19.307,6.097 13.5,6.484 7.693,6.886 7.686,6.31 7.598,5.736 7.425,5.162 6.527,2.14 3.471,0.16 0,0"
             style="fill:#ffffff;fill-opacity:1;fill-rule:evenodd;stroke:none"
             id="path1626" />
        </g>
        <g
           id="g1628"
           transform="translate(481.918,410.3047)">
          <path
             d="m 0,0 c 1.544,-29.124 3.236,-61.425 5.131,-97.333 2.125,-40.269 4.538,-85.778 7.268,-137.376 h -31.555 c 0.786,52.719 1.474,99.01 2.082,139.934 0.539,36.435 1.023,69.08 1.467,98.511 -0.992,0.249 -1.974,0.497 -2.968,0.776 0.01,-1.424 0.022,-2.88 0.034,-4.304 -4.961,-6.82 -10.049,-13.823 -15.25,-20.984 -5.329,-7.341 -10.795,-14.899 -16.407,-22.609 -5.532,-0.793 -11.07,-1.556 -16.618,-2.319 6.654,10.017 13.106,19.724 19.346,29.101 6.052,9.094 11.904,17.92 17.575,26.467 -0.525,0.914 -0.816,1.886 -0.857,2.887 -1.772,1.044 -3.529,2.087 -5.289,3.132 -5.543,14.361 -10.808,27.969 -15.815,40.913 2.039,4.02 4.054,7.98 6.04,11.907 3.687,-7.561 7.506,-15.329 11.419,-23.254 4.063,-8.219 8.227,-16.686 12.53,-25.452 0.602,-0.034 1.198,-0.129 1.794,-0.286 0.318,-0.092 0.636,-0.185 0.965,-0.249 1.457,0.839 2.919,1.707 4.376,2.545 C -6.816,20.981 1.136,19.921 9.095,18.899 17.083,17.872 25.108,16.817 33.143,15.793 36.255,12.081 39.392,8.37 42.599,4.568 36.758,4.938 30.925,5.325 25.117,5.711 19.309,6.097 13.501,6.484 7.694,6.885 7.689,6.31 7.601,5.735 7.428,5.161 6.528,2.138 3.472,0.159 0,0"
             style="fill:#ffffff;fill-opacity:1;fill-rule:evenodd;stroke:none"
             id="path1630" />
        </g>
        <g
           id="g1632"
           transform="translate(211.2983,382.0693)">
          <path
             d="m 0,0 c 1.543,-29.123 3.236,-61.426 5.13,-97.332 2.125,-40.27 4.536,-85.777 7.267,-137.377 h -31.555 c 0.787,52.72 1.476,99.011 2.082,139.934 0.54,36.435 1.024,69.08 1.47,98.511 -0.995,0.25 -1.977,0.497 -2.969,0.777 0.01,-1.425 0.021,-2.88 0.031,-4.305 -4.959,-6.82 -10.046,-13.824 -15.246,-20.984 -5.331,-7.34 -10.799,-14.899 -16.408,-22.609 -5.535,-0.793 -11.071,-1.555 -16.619,-2.319 6.654,10.017 13.106,19.724 19.346,29.102 6.052,9.095 11.904,17.92 17.575,26.466 -0.524,0.914 -0.816,1.886 -0.856,2.888 -1.774,1.044 -3.531,2.087 -5.29,3.131 -5.544,14.361 -10.809,27.969 -15.815,40.914 2.038,4.019 4.054,7.978 6.04,11.907 3.687,-7.562 7.506,-15.33 11.421,-23.255 4.061,-8.219 8.225,-16.687 12.526,-25.45 0.605,-0.036 1.201,-0.131 1.796,-0.286 0.317,-0.094 0.636,-0.187 0.964,-0.25 1.458,0.838 2.921,1.706 4.379,2.545 C -6.818,20.981 1.134,19.921 9.093,18.899 17.082,17.872 25.109,16.818 33.142,15.793 36.253,12.082 39.392,8.37 42.597,4.568 36.756,4.938 30.924,5.325 25.115,5.712 19.308,6.097 13.5,6.484 7.693,6.886 7.688,6.311 7.6,5.736 7.426,5.162 6.527,2.139 3.47,0.16 0,0"
             style="fill:#ffffff;fill-opacity:1;fill-rule:evenodd;stroke:none"
             id="path1634" />
        </g>
        <g
           id="g1636"
           transform="translate(599.0244,245.7383)">
          <path
             d="m 0,0 v -152.195 h -22.608 c -6.935,4.907 -13.809,11.179 -20.554,18.54 -16.5,18 -30.884,41.976 -40.191,67.552 -4.886,-3.313 -12.406,-5.085 -17.016,-5.045 -4.61,0.037 -5.624,0.386 -8.482,1.036 -1.094,-34.847 -17.389,-60.949 -40.833,-60.895 -23.441,0.059 -44.543,21.966 -58.159,52.587 -8.442,-11.152 -18.303,-17.785 -32.18,-17.706 -13.877,0.08 -29.281,9.653 -40.262,25.073 -5.778,-4.281 -8.724,-6.717 -18.917,-6.652 -10.193,0.062 -25.663,9.905 -33.588,25.117 -12.448,-18.368 -31.632,-30.08 -46.793,-29.984 -15.163,0.095 -23.811,6.343 -32.291,16.868 -14.357,-30.454 -46.487,-52.492 -60.429,-52.443 -13.94,0.046 -9.787,1.139 -13.963,3.253 -8.158,-15.419 -19.217,-28.506 -30.391,-37.301 h -16.433 v 132.281 c 11.9,10.902 28.91,17.234 34.465,17.167 5.952,-0.072 0,0 0.055,0 14.677,33.259 47.545,55.661 62.18,55.43 14.636,-0.23 13.048,-2.324 18.296,-6.217 12.774,28.983 35.901,47.919 56.867,47.524 20.966,-0.397 36.363,-16.428 44.264,-40.885 5.583,3.98 12.929,6.128 18.386,6.043 5.455,-0.086 8.64,-1.163 12.548,-3.097 8.82,12.789 18.25,20.38 34.329,20.089 16.08,-0.291 36.559,-15.517 48.05,-38.852 6.421,6.582 18.28,10.188 23.688,10.095 5.41,-0.092 3.356,-0.175 4.986,-0.453 2.57,25.476 20.2,42.041 35.386,41.756 15.189,-0.287 22.614,-5.807 33.237,-15.114 10.858,-9.517 21.107,-23.274 28.734,-39.608 4.892,3.534 7.001,5.456 17.662,5.292 10.662,-0.164 30.895,-9.329 46.347,-24.292 C -8.977,10.476 -4.419,5.488 0,0"
             style="fill:#628029;fill-opacity:1;fill-rule:evenodd;stroke:none"
             id="path1638" />
        </g>
        <g
           id="g1640"
           transform="translate(599.0244,176.3506)">
          <path
             d="m 0,0 v -71.114 c -2.073,-0.527 -4.317,-0.803 -6.729,-0.803 -11.569,0 -24.421,6.354 -35.452,16.413 -10.734,9.79 -21.851,29.297 -24.404,36.903 -2.553,7.603 -0.778,2.496 -1.131,3.706 -3.407,1.581 -6.708,3.731 -9.847,6.263 0.098,-0.955 0.167,-1.896 0.211,-2.824 -2.179,4.832 -4.187,9.756 -6.001,14.741 -4.886,-3.313 -12.406,-5.085 -17.016,-5.046 -4.61,0.037 -5.624,0.387 -8.482,1.036 -0.413,-13.097 -2.971,-24.961 -7.25,-34.665 -12.561,6.867 -24.256,20.853 -28.39,36.543 -6.798,1.839 -13.333,6.151 -18.671,11.981 -2.469,-9.974 -9.397,-16.905 -20.173,-16.876 -10.774,0.028 -22.262,8.512 -27.949,20.206 -2.854,-1.253 -7.411,-1.918 -9.565,-1.912 -2.152,0.004 -1.705,0.05 -2.565,0.145 0.24,-13.519 -3.944,-25.968 -11.166,-35.173 -1.813,-2.31 -3.862,-4.403 -6.09,-6.251 -13.707,0.368 -28.804,9.882 -39.615,25.062 -5.778,-4.281 -8.724,-6.718 -18.917,-6.652 -2.092,0.009 -4.408,0.438 -6.836,1.238 -2.005,4.107 -3.589,8.506 -4.686,13.097 -2.431,-0.627 -3.999,-0.963 -7.61,-0.955 -1.957,0.005 -4.392,0.318 -6.853,0.912 -2.901,3.18 -5.515,6.817 -7.603,10.825 -8.815,-13.008 -21.006,-22.674 -32.756,-27.176 -11.604,2.191 -21.802,12.472 -24.587,25.908 -3.727,-2.06 -7.741,-3.335 -11.836,-3.602 -1.251,-4.501 -3.357,-8.793 -6.009,-12.739 -1.318,1.395 -2.61,2.893 -3.896,4.493 -3.684,-7.814 -8.537,-15.066 -13.95,-21.541 -5.601,-3.422 -11.19,-5.397 -15.639,-5.389 -12.517,0.025 -14.04,3.131 -18.704,8.294 -7.915,-10.505 -22.494,-17.631 -30.255,-17.622 -7.763,0.009 -8.649,1.25 -11.953,3.486 -7.05,-7.917 -13.042,-13.106 -24.825,-13.097 -2.048,0 -4.035,0.483 -5.89,1.365 V 6.586 c 8.741,9.256 20.209,15.126 25.355,15.113 7.603,-0.02 3.103,-0.193 4.475,-0.54 8.063,11.601 23.32,19.34 31.606,19.314 8.285,-0.029 9.591,-1.615 13.086,-4.401 8.017,11.629 25.724,19.278 32.17,19.254 6.446,-0.024 1.838,-0.07 2.72,-0.167 5.802,12.257 18.379,20.808 29.282,20.756 10.899,-0.051 17.857,-6.084 21.488,-15.189 5.441,3.765 13.172,5.925 18.079,5.905 4.904,-0.022 6.531,-0.616 9.453,-1.709 6.275,10.565 17.007,17.458 28.529,17.401 11.522,-0.057 21.407,-6.658 27.281,-16.731 5.548,3.195 12.021,5 18.696,4.969 6.676,-0.029 12.937,-1.781 18.712,-4.883 3.95,9.551 11.16,15.836 22.906,15.779 11.745,-0.06 25.731,-10.124 31.026,-24.121 1.298,0.269 -0.041,0.398 4.06,0.383 4.1,-0.017 13.577,-3.17 19.141,-8.271 2.033,11.054 8.619,18.495 21.159,18.438 12.54,-0.055 28.851,-11.901 35.193,-27.853 7.066,-1.111 14.213,-4.765 20.535,-10.189 -0.332,12.921 6.766,21.851 19.128,21.797 12.361,-0.053 27.263,-10.048 36.042,-24.134 9.772,-0.884 20.304,-6.055 29.881,-14.045 C -8.408,9.561 -3.991,5.077 0,0"
             style="fill:#769a2a;fill-opacity:1;fill-rule:evenodd;stroke:none"
             id="path1642" />
        </g>
        <g
           id="g1644"
           transform="translate(599.0244,151.6611)">
          <path
             d="M 0,0 V -58.118 H -533.09 V 0 c 73.468,30.386 165.999,48.5 266.544,48.5 C -166,48.5 -73.469,30.386 0,0"
             style="fill:#9ac421;fill-opacity:1;fill-rule:evenodd;stroke:none"
             id="path1646" />
        </g>
        <g
           id="g1648"
           transform="translate(103.7041,565.6196)">
          <path
             d="m 0,0 54.165,-0.046 c 0.224,-2.214 0.834,-4.387 1.865,-6.44 5.271,-10.508 19.523,-13.928 31.83,-7.638 3.992,2.04 7.289,4.851 9.742,8.077 6.167,-9.295 16.981,-13.321 25.438,-9 0.98,0.501 1.889,1.094 2.725,1.768 7.936,-10.11 21.628,-13.735 32.94,-7.952 8.161,4.169 13.145,12.241 14.024,21.084 l 40.885,-0.035 -40.861,5.442 c -0.319,3.557 -1.305,7.138 -3.016,10.546 -6.926,13.805 -23.091,19.603 -36.108,12.951 -3.676,-1.879 -6.707,-4.55 -9.01,-7.727 -6.282,6.348 -15.064,8.62 -22.178,4.985 -2.225,-1.137 -4.086,-2.751 -5.55,-4.701 -6.69,6.409 -18.054,7.76 -28.121,2.616 C 61.49,20.21 56.519,13.924 54.766,7.235 Z"
             style="fill:#a3e1f4;fill-opacity:1;fill-rule:evenodd;stroke:none"
             id="path1650" />
        </g>
        <g
           id="g1652"
           transform="translate(573.4111,534.8765)">
          <path
             d="m 0,0 -39.188,3.458 c -0.588,-1.62 -1.422,-3.2 -2.508,-4.674 -5.221,-7.09 -14.263,-9.038 -20.193,-4.353 -0.729,0.577 -1.377,1.228 -1.945,1.937 -9.229,-6.853 -21.782,-7.181 -30.975,0.08 -0.822,0.653 -1.597,1.348 -2.322,2.082 -7.914,-7.826 -20.884,-8.385 -30.475,-0.807 -4.772,3.772 -7.89,8.91 -9.178,14.351 l -34.134,3.013 33.461,2.773 c 0.013,4.745 1.422,9.437 4.341,13.398 4.059,5.513 10.206,8.481 16.665,8.725 0.205,0.317 0.422,0.629 0.65,0.937 5.668,7.698 15.322,9.942 21.56,5.012 1.307,-1.032 2.357,-2.298 3.154,-3.723 8.97,5.452 20.37,5.238 28.883,-1.489 5.745,-4.539 9.075,-11.175 9.805,-18.205 3.346,0.488 6.708,-0.267 9.419,-2.41 2.718,-2.149 4.311,-5.321 4.736,-8.808 z"
             style="fill:#a3e1f4;fill-opacity:1;fill-rule:evenodd;stroke:none"
             id="path1654" />
        </g>
      </g>
    </g>
  </g>
</svg>
